<svg xmlns="http://www.w3.org/2000/svg" viewBox="0 0 344 184"><defs><style>.cls-1{fill:#c7c1c0;}.cls-10,.cls-2{fill:#fff;}.cls-3{fill:#f6f5f4;}.cls-4{fill:#908581;}.cls-10,.cls-4,.cls-5,.cls-9{stroke:#46332d;stroke-width:0.5px;}.cls-10,.cls-4,.cls-5{stroke-linecap:round;stroke-linejoin:round;}.cls-5,.cls-9{fill:none;}.cls-6,.cls-7{fill:#46332d;}.cls-6{stroke:#c7c1c0;}.cls-6,.cls-9{stroke-miterlimit:10;}.cls-8{fill:#00df3f;}</style></defs><title>Asset 73</title><g id="Layer_2" data-name="Layer 2"><g id="in-app"><rect class="cls-1" width="344" height="183.75"/><path class="cls-2" d="M180.88,183.52c-8-11.36-36.21-21.91-45.21-37.88-8.58-15.23-6.76-34.37-2.88-42.44,4-8.37,12.17-12.87,20.07-10.69,8.13,2.25,9.11,11.07,2.69,13.27l43.06,13.39c1.22-4.11-.55-10.53-4.32-13.24-2.48-1.8-5.8-7.4-1.88-11.32,4.24-4.22,10.35-.87,14.51,4.37,8,10.12,4.6,32.25,2.41,45.79-2.72,16.89,6.9,30.17,13.76,38.75Z"/><polyline class="cls-1" points="151.56 148.74 151.56 69.45 193.93 69.45 193.93 148.74 151.56 148.74"/><path class="cls-3" d="M191.1,60.26H154.39c-4,0-7.35,4-7.35,8.88v79.92c0,4.88,3.31,8.88,7.35,8.88H191.1c4,0,7.34-4,7.34-8.88V69.14C198.44,64.25,195.14,60.26,191.1,60.26Zm2.83,88.48H151.56V69.45h42.37Z"/><path class="cls-4" d="M191.1,60.26H154.39c-4,0-7.35,4-7.35,8.88v79.92c0,4.88,3.31,8.88,7.35,8.88H191.1c4,0,7.34-4,7.34-8.88V69.14C198.44,64.25,195.14,60.26,191.1,60.26Zm2.83,88.48H151.56V69.45h42.37Z"/><polyline class="cls-5" points="151.56 148.74 151.56 69.45 193.93 69.45 193.93 148.74 151.56 148.74"/><ellipse class="cls-6" cx="172.74" cy="148.74" rx="3.98" ry="3.97"/><rect class="cls-7" x="156.4" y="102" width="34.47" height="12.53" rx="2.39" ry="2.39"/><ellipse class="cls-8" cx="165.37" cy="108.26" rx="2.34" ry="2.34"/><ellipse class="cls-8" cx="173.63" cy="108.26" rx="2.34" ry="2.34"/><ellipse class="cls-8" cx="181.87" cy="108.26" rx="2.34" ry="2.34"/><path class="cls-2" d="M154.31,105.13c-7.6-3.58-15.42,3.64-15.42,3.64l4.8,11.35h10.24C159.37,118.86,162.82,109.13,154.31,105.13Z"/><path class="cls-2" d="M152.86,92.51c-7.9-2.18-16,2.32-20.07,10.69-2.22,4.61-3.72,12.81-3,21.85l25.78-19.27C162,103.58,161,94.76,152.86,92.51Z"/><path class="cls-9" d="M153.93,120.12c5.44-1.26,8.89-11,.38-15-7.6-3.58-15.42,3.64-15.42,3.64"/><path class="cls-10" d="M145.58,135.06c3.7-1.57,6.59.39,9.24-1.57,4.19-3.11,5.2-9.88-.51-13.23-8.62-5.06-16.17,2.53-16.17,2.53"/><path class="cls-5" d="M155.55,105.78c6.42-2.2,5.44-11-2.69-13.27-7.9-2.18-16,2.32-20.07,10.69-3.88,8.07-5.7,27.21,2.88,42.44,9,16,37.16,26.52,45.21,37.88"/><path class="cls-10" d="M209.33,144.77c2.19-13.54,5.62-35.67-2.41-45.79-4.16-5.24-10.27-8.59-14.51-4.37-3.92,3.92-.6,9.52,1.88,11.32,3.77,2.71,5.54,9.13,4.32,13.24"/><path class="cls-5" d="M223.09,183.52c-6.86-8.58-16.48-21.86-13.76-38.75"/><line class="cls-9" y1="183.75" x2="344" y2="183.75"/></g></g></svg>