<?xml version="1.0" encoding="utf-8"?>
<!-- Generator: Adobe Illustrator 22.0.1, SVG Export Plug-In . SVG Version: 6.00 Build 0)  -->
<svg version="1.1" id="logo_white" xmlns="http://www.w3.org/2000/svg" xmlns:xlink="http://www.w3.org/1999/xlink" x="0px" y="0px"
	 viewBox="0 0 232.4 52" style="enable-background:new 0 0 232.4 52;" xml:space="preserve">
<style type="text/css">
	.st0{fill:#FFFFFF;}
</style>
<path class="st0" d="M35.9,1.3c-3.7-0.6-8.8-0.9-14.2-0.9c-5.4,0-10.4,0.3-14.2,0.9c-5,0.8-7.2,2-7.2,3.8v30.8
	c0,5.1,3.1,9.3,7.2,9.9c-0.1,0.9-0.5,1.6-2,1.8l-1.6,0.2l1,1.3c1.1,1.5,3,2.4,5.2,2.4c0.9,0,1.8-0.1,2.7-0.4c3-0.9,5.1-2.9,5.7-5.3
	h16.5c4.5,0,8.2-4.5,8.2-10V5.1C43.1,3.3,40.9,2.2,35.9,1.3 M41.1,35.9c0,4.4-2.8,8-6.2,8H16.6l0,1c-0.1,2.2-2.3,3.8-4.4,4.4
	c-1.4,0.4-3.2,0.5-4.5-0.2c1.3-0.7,2-2.1,2-4v-1.1h-1c-3.4,0-6.2-3.6-6.2-8l0-30.8c0.3-1,6.4-2.8,19.4-2.8c13,0,19,1.8,19.4,2.7
	V35.9z"/>
<path class="st0" d="M15,18.7c0-2.2,0.4-5.8,2.4-7.7c1.1-1,2.5-1.4,4.4-1.4c1.9,0,3.3,0.5,4.4,1.4c2.1,1.9,2.4,5.4,2.4,7.7
	c1.3,0.1,2.4,0.3,3.3,0.4c0-2.7-0.2-7.4-3.4-10.2c-1.7-1.5-3.9-2.3-6.7-2.3c-2.8,0-5,0.8-6.7,2.3c-3.1,2.9-3.4,7.5-3.4,10.2
	C12.5,19,13.7,18.8,15,18.7"/>
<path class="st0" d="M21.7,20.2c-5.6,0-11.2,0.5-11.2,1.5v13.5c0,2,1.8,3.6,4,3.6h7.2H29c2.2,0,4-1.6,4-3.6V21.7
	C32.9,20.7,27.3,20.2,21.7,20.2 M28.2,31.5h-4.5V36h-3.9v-4.5h-4.5v-3.9h4.5v-4.5h3.9v4.5h4.5V31.5z"/>
<polygon class="st0" points="62.8,20.1 62.7,20.1 59.9,36 56.8,36 61.7,10.9 70,29.9 78.3,10.9 83.2,36 80.1,36 77.3,20.1 
	77.2,20.1 70,36.6 "/>
<path class="st0" d="M88.6,29c0,2.6,1.8,5,4.5,5c2.2,0,3.4-1.1,4.5-2.9l2.4,1.4c-1.4,2.6-4,4.1-6.9,4.1c-4.6,0-7.4-3.5-7.4-7.9
	c0-4.6,2.5-8.1,7.3-8.1c4.8,0,7,3.5,7,8V29H88.6z M97.1,26.9c-0.4-2.2-1.8-3.7-4.1-3.7c-2.2,0-3.9,1.6-4.3,3.7H97.1z"/>
<path class="st0" d="M114.9,33.7L114.9,33.7c-1.2,1.7-3,2.8-5.2,2.8c-4.6,0-7.2-3.8-7.2-8.1c0-4.1,2.7-7.8,7-7.8
	c2.2,0,4,1.2,5.2,2.9h0.1V8.3h2.9V36h-2.9V33.7z M115.1,28.6c0-2.9-1.8-5.4-4.9-5.4c-3,0-4.7,2.6-4.7,5.4c0,2.8,1.7,5.4,4.7,5.4
	C113.4,34,115.1,31.5,115.1,28.6"/>
<path class="st0" d="M140.7,16.5c-1.7-1.5-4.1-2.4-6.4-2.4c-5.4,0-9.5,4.5-9.5,9.9c0,5.3,4.1,9.8,9.5,9.8c2.4,0,4.6-0.9,6.4-2.5v3.6
	c-1.9,1.1-4.2,1.7-6.3,1.7c-6.9,0-12.6-5.5-12.6-12.4c0-7.1,5.7-12.7,12.8-12.7c2.1,0,4.3,0.5,6.1,1.6V16.5z"/>
<path class="st0" d="M148.3,23.5L148.3,23.5c0.8-1.8,2.3-2.9,4.2-2.9c0.8,0,1.7,0.3,2.4,0.7l-1.3,2.6c-0.5-0.4-1.1-0.6-1.8-0.6
	c-3.1,0-3.5,2.9-3.5,5.3V36h-2.9v-15h2.9V23.5z"/>
<polygon class="st0" points="156.7,21.1 160,21.1 165.1,30.6 169.8,21.1 173,21.1 160.9,44.6 157.6,44.6 163.5,33.5 "/>
<path class="st0" d="M178.5,23.6L178.5,23.6c1.2-1.8,3-2.9,5.3-2.9c4.3,0,7,3.7,7,7.8c0,4.3-2.6,8.1-7.2,8.1c-2.1,0-3.9-1.2-5.1-2.8
	h-0.1v10.9h-2.9V21.1h2.9V23.6z M187.9,28.6c0-2.9-1.8-5.4-4.9-5.4c-3,0-4.7,2.6-4.7,5.4c0,2.8,1.7,5.4,4.7,5.4
	C186.2,34,187.9,31.5,187.9,28.6"/>
<polygon class="st0" points="198.2,36 195.3,36 195.3,23.8 193.7,23.8 193.7,21.1 195.3,21.1 195.3,15.3 198.2,15.3 198.2,21.1 
	201,21.1 201,23.8 198.2,23.8 "/>
<path class="st0" d="M218.5,28.6c0,4.5-3.5,8-8,8c-4.5,0-8-3.5-8-8c0-4.5,3.5-8,8-8C215,20.6,218.5,24.1,218.5,28.6 M205.4,28.6
	c0,2.8,2.3,5.2,5.1,5.2c2.8,0,5.1-2.4,5.1-5.2c0-2.8-2.3-5.2-5.1-5.2C207.7,23.4,205.4,25.7,205.4,28.6"/>
<path class="st0" d="M225.5,23.5L225.5,23.5c0.8-1.8,2.3-2.9,4.2-2.9c0.8,0,1.7,0.3,2.4,0.7l-1.3,2.6c-0.5-0.4-1.1-0.6-1.8-0.6
	c-3.1,0-3.5,2.9-3.5,5.3V36h-2.9v-15h2.9V23.5z"/>
</svg>
